<?xml version="1.0" encoding="UTF-8" standalone="no"?>
<!-- Created with Inkscape (http://www.inkscape.org/) -->

<svg
   xmlns:dc="http://purl.org/dc/elements/1.1/"
   xmlns:cc="http://creativecommons.org/ns#"
   xmlns:rdf="http://www.w3.org/1999/02/22-rdf-syntax-ns#"
   xmlns:svg="http://www.w3.org/2000/svg"
   xmlns="http://www.w3.org/2000/svg"
   xmlns:sodipodi="http://sodipodi.sourceforge.net/DTD/sodipodi-0.dtd"
   xmlns:inkscape="http://www.inkscape.org/namespaces/inkscape"
   width="210mm"
   height="297mm"
   id="svg5306"
   version="1.1"
   inkscape:version="0.48.4 r9939"
   sodipodi:docname="heads.svg.2014_10_27_22_19_54.0.svg">
  <defs
     id="defs5308">
    <inkscape:path-effect
       effect="spiro"
       id="path-effect5734"
       is_visible="true" />
    <inkscape:path-effect
       effect="spiro"
       id="path-effect5730"
       is_visible="true" />
    <inkscape:path-effect
       effect="spiro"
       id="path-effect5726"
       is_visible="true" />
    <inkscape:path-effect
       effect="spiro"
       id="path-effect5697"
       is_visible="true" />
    <inkscape:path-effect
       effect="spiro"
       id="path-effect5691"
       is_visible="true" />
    <inkscape:path-effect
       effect="spiro"
       id="path-effect5179"
       is_visible="true" />
    <inkscape:path-effect
       effect="spiro"
       id="path-effect4965"
       is_visible="true" />
    <inkscape:path-effect
       effect="spiro"
       id="path-effect5392"
       is_visible="true" />
    <inkscape:path-effect
       effect="spiro"
       id="path-effect4965-8"
       is_visible="true" />
    <inkscape:path-effect
       effect="spiro"
       id="path-effect5697-8"
       is_visible="true" />
    <inkscape:path-effect
       effect="spiro"
       id="path-effect5734-0"
       is_visible="true" />
    <inkscape:path-effect
       effect="spiro"
       id="path-effect5734-0-7"
       is_visible="true" />
    <inkscape:path-effect
       effect="spiro"
       id="path-effect5734-6"
       is_visible="true" />
    <inkscape:path-effect
       effect="spiro"
       id="path-effect5726-7"
       is_visible="true" />
    <inkscape:path-effect
       effect="spiro"
       id="path-effect5730-6"
       is_visible="true" />
    <inkscape:path-effect
       effect="spiro"
       id="path-effect5697-8-3"
       is_visible="true" />
    <inkscape:path-effect
       effect="spiro"
       id="path-effect5697-4"
       is_visible="true" />
  </defs>
  <sodipodi:namedview
     id="base"
     pagecolor="#ffffff"
     bordercolor="#666666"
     borderopacity="1.0"
     inkscape:pageopacity="0.0"
     inkscape:pageshadow="2"
     inkscape:zoom="3.959798"
     inkscape:cx="1.8604211"
     inkscape:cy="71.709834"
     inkscape:document-units="px"
     inkscape:current-layer="layer1"
     showgrid="false"
     showguides="true"
     inkscape:guide-bbox="true"
     inkscape:window-width="1305"
     inkscape:window-height="744"
     inkscape:window-x="55"
     inkscape:window-y="24"
     inkscape:window-maximized="1">
    <sodipodi:guide
       orientation="1,0"
       position="50.507627,21.71828"
       id="guide5314" />
    <sodipodi:guide
       orientation="0,1"
       position="50.507627,50.002551"
       id="guide5316" />
    <sodipodi:guide
       orientation="1,0"
       position="100.0051,35.355339"
       id="guide5318" />
    <sodipodi:guide
       orientation="1,0"
       position="150.89286,-36.607143"
       id="guide6128" />
  </sodipodi:namedview>
  <metadata
     id="metadata5311">
    <rdf:RDF>
      <cc:Work
         rdf:about="">
        <dc:format>image/svg+xml</dc:format>
        <dc:type
           rdf:resource="http://purl.org/dc/dcmitype/StillImage" />
        <dc:title></dc:title>
      </cc:Work>
    </rdf:RDF>
  </metadata>
  <g
     inkscape:label="Capa 1"
     inkscape:groupmode="layer"
     id="layer1"
     style="display:inline">
    <rect
       style="fill:#f5c19d;fill-opacity:1;stroke:none"
       id="rect5357-5-9"
       width="9.0410585"
       height="8.9812737"
       x="68.372078"
       y="987.72034" />
    <path
       style="fill:#f3c09d;fill-opacity:1;stroke:none"
       d="m 78.245539,1001.9093 c -0.202821,0.1958 -0.462748,0.3282 -0.736482,0.3957 -0.273733,0.067 -0.560954,0.072 -0.839957,0.031 -0.558008,-0.081 -1.074665,-0.3349 -1.570883,-0.6027 -1.002497,-0.541 -1.966952,-1.153 -2.991072,-1.6518 -0.685204,-0.33374 -1.396611,-0.61658 -2.055071,-1.0004 -0.65846,-0.38382 -1.272334,-0.88234 -1.650286,-1.54419 -0.262498,-0.45967 -0.402494,-0.98856 -0.401785,-1.5179 l 2.678571,-0.9821 6.651786,0 1.026785,1.6071 c 0.12639,0.93655 0.245443,1.87409 0.357143,2.8125 0.05109,0.42921 0.100667,0.86319 0.05087,1.29259 -0.0498,0.4294 -0.20866,0.8599 -0.519618,1.1601"
       id="path4963-1"
       inkscape:path-effect="#path-effect4965-8"
       inkscape:original-d="m 78.245539,1001.9093 c -0.828106,0.6468 -2.137558,0.1147 -3.147322,-0.1759 -1.094538,-0.315 -2.021975,-1.0534 -2.991072,-1.6518 -1.274869,-0.78719 -2.842236,-1.31979 -3.705357,-2.54459 -0.301496,-0.4278 -0.401785,-1.5179 -0.401785,-1.5179 l 2.678571,-0.9821 6.651786,0 1.026785,1.6071 c 0,0 0.386682,1.868 0.357143,2.8125 -0.02602,0.83199 0.187266,1.94039 -0.468749,2.45269 z"
       inkscape:connector-curvature="0"
       sodipodi:nodetypes="ssssccccss" />
    <rect
       style="fill:#f5c19d;fill-opacity:1;stroke:none"
       id="rect5357"
       width="9.0410585"
       height="12.240202"
       x="20.577347"
       y="1038.0353" />
    <rect
       style="fill:#ffccaa;fill-opacity:1;stroke:none"
       id="rect5908"
       width="21.441116"
       height="26.555511"
       x="14.580957"
       y="1011.4702"
       ry="9.2312593" />
    <path
       sodipodi:type="arc"
       style="fill:#ffccaa;fill-opacity:1;stroke:none"
       id="path5914"
       sodipodi:cx="34.376755"
       sodipodi:cy="1034.6213"
       sodipodi:rx="5.334868"
       sodipodi:ry="6.1871843"
       d="m 39.711623,1034.6213 a 5.334868,6.1871843 0 1 1 -10.669736,0 5.334868,6.1871843 0 1 1 10.669736,0 z"
       transform="matrix(1.9910904,0,0,1.9790976,-43.244067,-1016.5249)" />
    <path
       sodipodi:type="arc"
       style="fill:#ffccaa;fill-opacity:1;stroke:none"
       id="path5918"
       sodipodi:cx="23.075672"
       sodipodi:cy="1021.9944"
       sodipodi:rx="1.2311234"
       sodipodi:ry="1.767767"
       d="m 24.306796,1021.9944 a 1.2311234,1.767767 0 1 1 -2.462247,0 1.2311234,1.767767 0 1 1 2.462247,0 z"
       transform="matrix(1.5578439,0,0,1.5578439,-21.514871,-562.09761)" />
    <path
       transform="matrix(1.5578439,0,0,1.5578439,-0.02457662,-562.09761)"
       sodipodi:type="arc"
       style="fill:#ffccaa;fill-opacity:1;stroke:none"
       id="path5918-3"
       sodipodi:cx="23.075672"
       sodipodi:cy="1021.9944"
       sodipodi:rx="1.2311234"
       sodipodi:ry="1.767767"
       d="m 24.306796,1021.9944 a 1.2311234,1.767767 0 1 1 -2.462247,0 1.2311234,1.767767 0 1 1 2.462247,0 z" />
    <rect
       style="fill:#f5c19d;fill-opacity:1;stroke:none"
       id="rect5940"
       width="17.525747"
       height="3.7555981"
       x="16.126364"
       y="1048.6066"
       ry="1.877799"
       rx="7.1798234" />
    <path
       transform="matrix(0.61109127,0,0,0.61109127,12.368756,377.3247)"
       sodipodi:type="arc"
       style="fill:#1a1a1a;fill-opacity:1;stroke:none"
       id="path5995"
       sodipodi:cx="13.75"
       sodipodi:cy="1065.2194"
       sodipodi:rx="1.7857143"
       sodipodi:ry="1.7857143"
       d="m 15.535714,1065.2194 a 1.7857143,1.7857143 0 1 1 -3.571428,0 1.7857143,1.7857143 0 1 1 3.571428,0 z" />
    <path
       transform="matrix(0.61109127,0,0,0.61109127,20.891919,377.3247)"
       sodipodi:type="arc"
       style="fill:#1a1a1a;fill-opacity:1;stroke:none"
       id="path5995-5"
       sodipodi:cx="13.75"
       sodipodi:cy="1065.2194"
       sodipodi:rx="1.7857143"
       sodipodi:ry="1.7857143"
       d="m 15.535714,1065.2194 a 1.7857143,1.7857143 0 1 1 -3.571428,0 1.7857143,1.7857143 0 1 1 3.571428,0 z" />
    <rect
       style="fill:#f5c19d;fill-opacity:1;stroke:none"
       id="rect5357-6"
       width="9.0410585"
       height="12.240202"
       x="71.160217"
       y="1038.0353" />
    <rect
       style="fill:#ffccaa;fill-opacity:1;stroke:none"
       id="rect5908-7"
       width="21.441116"
       height="26.555511"
       x="65.163826"
       y="1011.4702"
       ry="9.2312593" />
    <path
       sodipodi:type="arc"
       style="fill:#ffccaa;fill-opacity:1;stroke:none"
       id="path5914-1"
       sodipodi:cx="34.376755"
       sodipodi:cy="1034.6213"
       sodipodi:rx="5.334868"
       sodipodi:ry="6.1871843"
       d="m 39.711623,1034.6213 a 5.334868,6.1871843 0 1 1 -10.669736,0 5.334868,6.1871843 0 1 1 10.669736,0 z"
       transform="matrix(1.9910904,0,0,1.9790976,7.3388029,-1016.5249)" />
    <path
       sodipodi:type="arc"
       style="fill:#ffccaa;fill-opacity:1;stroke:none"
       id="path5918-6"
       sodipodi:cx="23.075672"
       sodipodi:cy="1021.9944"
       sodipodi:rx="1.2311234"
       sodipodi:ry="1.767767"
       d="m 24.306796,1021.9944 a 1.2311234,1.767767 0 1 1 -2.462247,0 1.2311234,1.767767 0 1 1 2.462247,0 z"
       transform="matrix(1.5578439,0,0,1.5578439,29.067999,-562.0976)" />
    <path
       transform="matrix(1.5578439,0,0,1.5578439,50.558293,-562.0976)"
       sodipodi:type="arc"
       style="fill:#ffccaa;fill-opacity:1;stroke:none"
       id="path5918-3-8"
       sodipodi:cx="23.075672"
       sodipodi:cy="1021.9944"
       sodipodi:rx="1.2311234"
       sodipodi:ry="1.767767"
       d="m 24.306796,1021.9944 a 1.2311234,1.767767 0 1 1 -2.462247,0 1.2311234,1.767767 0 1 1 2.462247,0 z" />
    <rect
       style="fill:#f5c19d;fill-opacity:1;stroke:none"
       id="rect5940-6"
       width="17.525747"
       height="3.7555981"
       x="66.709236"
       y="1048.6066"
       ry="1.877799"
       rx="7.1798234" />
    <rect
       style="fill:#1a1a1a;fill-opacity:1;stroke:none"
       id="rect6083"
       width="2.96875"
       height="0.4017857"
       x="78.4375"
       y="1028.1658"
       rx="0.41738546" />
    <rect
       style="fill:#1a1a1a;fill-opacity:1;stroke:none"
       id="rect6083-1"
       width="2.96875"
       height="0.4017857"
       x="69.944191"
       y="1028.0095"
       rx="0.41738546" />
    <rect
       style="fill:#1a1a1a;fill-opacity:1;stroke:none"
       id="rect6083-1-8"
       width="2.96875"
       height="0.4017857"
       x="479.61411"
       y="910.86267"
       rx="0.41738546"
       transform="matrix(0.91452656,0.40452586,-0.40452586,0.91452656,0,0)" />
    <rect
       style="fill:#1a1a1a;fill-opacity:1;stroke:none"
       id="rect6083-1-1"
       width="2.96875"
       height="0.4017857"
       x="-170.44566"
       y="1016.8905"
       rx="0.41738546"
       inkscape:transform-center-x="5.094127"
       inkscape:transform-center-y="1.9025688"
       transform="matrix(0.97080285,-0.23987876,0.23987876,0.97080285,0,0)" />
    <rect
       style="fill:#f5c19d;fill-opacity:1;stroke:none"
       id="rect5357-4"
       width="9.0410585"
       height="12.240202"
       x="120.91023"
       y="1038.0353" />
    <rect
       style="fill:#ffccaa;fill-opacity:1;stroke:none"
       id="rect5908-6"
       width="21.441116"
       height="26.555511"
       x="114.91384"
       y="1011.4702"
       ry="9.2312593" />
    <path
       sodipodi:type="arc"
       style="fill:#ffccaa;fill-opacity:1;stroke:none"
       id="path5914-6"
       sodipodi:cx="34.376755"
       sodipodi:cy="1034.6213"
       sodipodi:rx="5.334868"
       sodipodi:ry="6.1871843"
       d="m 39.711623,1034.6213 a 5.334868,6.1871843 0 1 1 -10.669736,0 5.334868,6.1871843 0 1 1 10.669736,0 z"
       transform="matrix(1.9910904,0,0,1.9790976,57.088816,-1016.5249)" />
    <path
       sodipodi:type="arc"
       style="fill:#ffccaa;fill-opacity:1;stroke:none"
       id="path5918-1"
       sodipodi:cx="23.075672"
       sodipodi:cy="1021.9944"
       sodipodi:rx="1.2311234"
       sodipodi:ry="1.767767"
       d="m 24.306796,1021.9944 a 1.2311234,1.767767 0 1 1 -2.462247,0 1.2311234,1.767767 0 1 1 2.462247,0 z"
       transform="matrix(1.5578439,0,0,1.5578439,78.818012,-562.09761)" />
    <path
       transform="matrix(1.5578439,0,0,1.5578439,100.30831,-562.09761)"
       sodipodi:type="arc"
       style="fill:#ffccaa;fill-opacity:1;stroke:none"
       id="path5918-3-7"
       sodipodi:cx="23.075672"
       sodipodi:cy="1021.9944"
       sodipodi:rx="1.2311234"
       sodipodi:ry="1.767767"
       d="m 24.306796,1021.9944 a 1.2311234,1.767767 0 1 1 -2.462247,0 1.2311234,1.767767 0 1 1 2.462247,0 z" />
    <rect
       style="fill:#f5c19d;fill-opacity:1;stroke:none"
       id="rect5940-8"
       width="17.525747"
       height="3.7555981"
       x="116.45924"
       y="1048.6066"
       ry="1.877799"
       rx="7.1798234" />
    <path
       transform="matrix(0.61109127,0,0,0.61109127,112.70164,377.32468)"
       sodipodi:type="arc"
       style="fill:#1a1a1a;fill-opacity:1;stroke:none"
       id="path5995-7"
       sodipodi:cx="13.75"
       sodipodi:cy="1065.2194"
       sodipodi:rx="1.7857143"
       sodipodi:ry="1.7857143"
       d="m 15.535714,1065.2194 a 1.7857143,1.7857143 0 1 1 -3.571428,0 1.7857143,1.7857143 0 1 1 3.571428,0 z" />
    <path
       transform="matrix(0.61109127,0,0,0.61109127,121.2248,377.32468)"
       sodipodi:type="arc"
       style="fill:#1a1a1a;fill-opacity:1;stroke:none"
       id="path5995-5-0"
       sodipodi:cx="13.75"
       sodipodi:cy="1065.2194"
       sodipodi:rx="1.7857143"
       sodipodi:ry="1.7857143"
       d="m 15.535714,1065.2194 a 1.7857143,1.7857143 0 1 1 -3.571428,0 1.7857143,1.7857143 0 1 1 3.571428,0 z" />
    <path
       sodipodi:type="arc"
       style="fill:#1a1a1a;fill-opacity:1;stroke:none"
       id="path6197"
       sodipodi:cx="125.98214"
       sodipodi:cy="1037.1389"
       sodipodi:rx="2.5892856"
       sodipodi:ry="1.8303572"
       d="m 128.57143,1037.1389 a 2.5892856,1.8303572 0 1 1 -5.17858,0 2.5892856,1.8303572 0 1 1 5.17858,0 z" />
    <path
       sodipodi:type="arc"
       style="fill:#ffffff;fill-opacity:1;stroke:none"
       id="path6212"
       sodipodi:cx="122.52835"
       sodipodi:cy="1037.9833"
       sodipodi:rx="1.7204161"
       sodipodi:ry="0.77339804"
       d="m 124.24877,1037.9833 a 1.7204161,0.77339804 0 0 1 -3.43401,0.069 l 1.71359,-0.069 z"
       sodipodi:start="0"
       sodipodi:end="3.0525159"
       transform="matrix(-0.99929452,-0.03755618,0.03755618,-0.99929452,209.48384,2077.926)" />
    <rect
       style="fill:#f5c19d;fill-opacity:1;stroke:none"
       id="rect5357-4-7"
       width="9.0410585"
       height="12.240202"
       x="170.39877"
       y="1038.0353" />
    <rect
       style="fill:#ffccaa;fill-opacity:1;stroke:none"
       id="rect5908-6-2"
       width="21.441116"
       height="26.555511"
       x="164.40239"
       y="1011.4702"
       ry="9.2312593" />
    <path
       sodipodi:type="arc"
       style="fill:#ffccaa;fill-opacity:1;stroke:none"
       id="path5914-6-7"
       sodipodi:cx="34.376755"
       sodipodi:cy="1034.6213"
       sodipodi:rx="5.334868"
       sodipodi:ry="6.1871843"
       d="m 39.711623,1034.6213 a 5.334868,6.1871843 0 1 1 -10.669736,0 5.334868,6.1871843 0 1 1 10.669736,0 z"
       transform="matrix(1.9910904,0,0,1.9790976,106.57736,-1016.5249)" />
    <path
       sodipodi:type="arc"
       style="fill:#ffccaa;fill-opacity:1;stroke:none"
       id="path5918-1-6"
       sodipodi:cx="23.075672"
       sodipodi:cy="1021.9944"
       sodipodi:rx="1.2311234"
       sodipodi:ry="1.767767"
       d="m 24.306796,1021.9944 a 1.2311234,1.767767 0 1 1 -2.462247,0 1.2311234,1.767767 0 1 1 2.462247,0 z"
       transform="matrix(1.5578439,0,0,1.5578439,128.30656,-562.09759)" />
    <path
       transform="matrix(1.5578439,0,0,1.5578439,149.79685,-562.09759)"
       sodipodi:type="arc"
       style="fill:#ffccaa;fill-opacity:1;stroke:none"
       id="path5918-3-7-6"
       sodipodi:cx="23.075672"
       sodipodi:cy="1021.9944"
       sodipodi:rx="1.2311234"
       sodipodi:ry="1.767767"
       d="m 24.306796,1021.9944 a 1.2311234,1.767767 0 1 1 -2.462247,0 1.2311234,1.767767 0 1 1 2.462247,0 z" />
    <rect
       style="fill:#f5c19d;fill-opacity:1;stroke:none"
       id="rect5940-8-3"
       width="17.525747"
       height="3.7555981"
       x="165.94778"
       y="1048.6066"
       ry="1.877799"
       rx="7.1798234" />
    <path
       transform="matrix(0.61109127,0,0,0.61109127,162.19018,377.32468)"
       sodipodi:type="arc"
       style="fill:#1a1a1a;fill-opacity:1;stroke:none"
       id="path5995-7-5"
       sodipodi:cx="13.75"
       sodipodi:cy="1065.2194"
       sodipodi:rx="1.7857143"
       sodipodi:ry="1.7857143"
       d="m 15.535714,1065.2194 a 1.7857143,1.7857143 0 1 1 -3.571428,0 1.7857143,1.7857143 0 1 1 3.571428,0 z" />
    <path
       transform="matrix(0.61109127,0,0,0.61109127,170.71334,377.32468)"
       sodipodi:type="arc"
       style="fill:#1a1a1a;fill-opacity:1;stroke:none"
       id="path5995-5-0-2"
       sodipodi:cx="13.75"
       sodipodi:cy="1065.2194"
       sodipodi:rx="1.7857143"
       sodipodi:ry="1.7857143"
       d="m 15.535714,1065.2194 a 1.7857143,1.7857143 0 1 1 -3.571428,0 1.7857143,1.7857143 0 1 1 3.571428,0 z" />
    <path
       transform="matrix(1,0,0,0.41637141,49.488543,605.30076)"
       sodipodi:type="arc"
       style="fill:#1a1a1a;fill-opacity:1;stroke:none"
       id="path6197-9"
       sodipodi:cx="125.98214"
       sodipodi:cy="1037.1389"
       sodipodi:rx="2.5892856"
       sodipodi:ry="1.8303572"
       d="m 128.57143,1037.1389 a 2.5892856,1.8303572 0 1 1 -5.17858,0 2.5892856,1.8303572 0 1 1 5.17858,0 z" />
    <path
       sodipodi:type="arc"
       style="fill:#ffffff;fill-opacity:1;stroke:none"
       id="path6212-0"
       sodipodi:cx="122.52835"
       sodipodi:cy="1037.9833"
       sodipodi:rx="1.7204161"
       sodipodi:ry="0.77339804"
       d="m 124.24877,1037.9833 a 1.7204161,0.77339804 0 0 1 -3.43401,0.069 l 1.71359,-0.069 z"
       sodipodi:start="0"
       sodipodi:end="3.0525159"
       transform="matrix(-0.99929452,-0.01563732,0.03755618,-0.41607766,258.97238,1470.4897)" />
    <rect
       style="fill:#f5c19d;fill-opacity:1;stroke:none"
       id="rect5357-5"
       width="9.0410585"
       height="8.9812737"
       x="18.372082"
       y="987.58301" />
    <rect
       style="fill:#ffccaa;fill-opacity:1;stroke:none"
       id="rect5908-73"
       width="21.441116"
       height="27.944471"
       x="13.939162"
       y="961.47021"
       ry="9.7140913" />
    <path
       sodipodi:type="arc"
       style="fill:#ffccaa;fill-opacity:1;stroke:none"
       id="path5914-5"
       sodipodi:cx="34.376755"
       sodipodi:cy="1034.6213"
       sodipodi:rx="5.334868"
       sodipodi:ry="6.1871843"
       d="m 39.711623,1034.6213 a 5.334868,6.1871843 0 1 1 -10.669736,0 5.334868,6.1871843 0 1 1 10.669736,0 z"
       transform="matrix(1.2325741,-1.3894186,1.442297,1.9814887,-1510.2944,-1024.3918)" />
    <path
       sodipodi:type="arc"
       style="fill:#ffd1b3;fill-opacity:1;stroke:none"
       id="path5918-39"
       sodipodi:cx="23.075672"
       sodipodi:cy="1021.9944"
       sodipodi:rx="1.2311234"
       sodipodi:ry="1.767767"
       d="m 24.306796,1021.9944 a 1.2311234,1.767767 0 1 1 -2.462247,0 1.2311234,1.767767 0 1 1 2.462247,0 z"
       transform="matrix(1.5578439,0,0,1.5578439,-22.030397,-611.21366)" />
    <path
       transform="matrix(0.61109127,0,0,0.61109127,20.7552,325.68329)"
       sodipodi:type="arc"
       style="fill:#1a1a1a;fill-opacity:1;stroke:none"
       id="path5995-5-01"
       sodipodi:cx="13.75"
       sodipodi:cy="1065.2194"
       sodipodi:rx="1.7857143"
       sodipodi:ry="1.7857143"
       d="m 15.535714,1065.2194 a 1.7857143,1.7857143 0 1 1 -3.571428,0 1.7857143,1.7857143 0 1 1 3.571428,0 z" />
    <path
       sodipodi:type="arc"
       style="fill:#000000;fill-opacity:1;stroke:none"
       id="path6337"
       sodipodi:cx="32.94643"
       sodipodi:cy="987.85327"
       sodipodi:rx="2.6785715"
       sodipodi:ry="1.6517857"
       d="m 32.00723,989.40019 a 2.6785715,1.6517857 0 0 1 1.297106,-3.18389 l -0.357906,1.63697 z"
       sodipodi:start="1.929045"
       sodipodi:end="4.8464079"
       transform="matrix(1.3821655,0,0,0.41384262,-11.76242,578.42638)" />
    <path
       transform="matrix(0.61109127,0,0,0.61109127,26.982486,325.3445)"
       sodipodi:type="arc"
       style="fill:#1a1a1a;fill-opacity:1;stroke:none"
       id="path5995-5-01-7"
       sodipodi:cx="13.75"
       sodipodi:cy="1065.2194"
       sodipodi:rx="1.7857143"
       sodipodi:ry="1.7857143"
       d="m 13.602814,1066.999 a 1.7857143,1.7857143 0 0 1 0.11797,-3.5651 l 0.02922,1.7855 z"
       sodipodi:start="1.6533143"
       sodipodi:end="4.6960272" />
    <rect
       style="fill:#ffccaa;fill-opacity:1;stroke:none"
       id="rect5908-73-2"
       width="21.441116"
       height="27.944471"
       x="63.939167"
       y="961.47021"
       ry="9.7140913" />
    <path
       sodipodi:type="arc"
       style="fill:#ffccaa;fill-opacity:1;stroke:none"
       id="path5914-5-9"
       sodipodi:cx="34.376755"
       sodipodi:cy="1034.6213"
       sodipodi:rx="5.334868"
       sodipodi:ry="6.1871843"
       d="m 39.711623,1034.6213 a 5.334868,6.1871843 0 1 1 -10.669736,0 5.334868,6.1871843 0 1 1 10.669736,0 z"
       transform="matrix(1.2325741,-1.3894186,1.442297,1.9814887,-1460.2944,-1024.3918)" />
    <path
       sodipodi:type="arc"
       style="fill:#ffd1b3;fill-opacity:1;stroke:none"
       id="path5918-39-0"
       sodipodi:cx="23.075672"
       sodipodi:cy="1021.9944"
       sodipodi:rx="1.2311234"
       sodipodi:ry="1.767767"
       d="m 24.306796,1021.9944 a 1.2311234,1.767767 0 1 1 -2.462247,0 1.2311234,1.767767 0 1 1 2.462247,0 z"
       transform="matrix(1.5578439,0,0,1.5578439,27.969603,-611.21362)" />
    <path
       sodipodi:type="arc"
       style="fill:#000000;fill-opacity:1;stroke:none"
       id="path6337-6"
       sodipodi:cx="32.94643"
       sodipodi:cy="987.85327"
       sodipodi:rx="2.6785715"
       sodipodi:ry="1.6517857"
       d="m 32.00723,989.40019 a 2.6785715,1.6517857 0 0 1 1.297106,-3.18389 l -0.357906,1.63697 z"
       sodipodi:start="1.929045"
       sodipodi:end="4.8464079"
       transform="matrix(0.82361594,0,0,0.33010585,56.839702,661.27563)" />
    <rect
       style="fill:#1a1a1a;fill-opacity:1;stroke:none"
       id="rect6083-1-5"
       width="2.96875"
       height="0.4017857"
       x="77.721237"
       y="976.61224"
       rx="0.41738546" />
    <rect
       style="fill:#1a1a1a;fill-opacity:1;stroke:none"
       id="rect6083-1-8-5"
       width="2.96875"
       height="0.4017857"
       x="465.93491"
       y="860.71246"
       rx="0.41738546"
       transform="matrix(0.91452656,0.40452586,-0.40452586,0.91452656,0,0)" />
    <rect
       style="fill:#1a1a1a;fill-opacity:1;stroke:none"
       id="rect6083-1-54"
       width="2.96875"
       height="0.4017857"
       x="83.786736"
       y="976.75952"
       rx="0.41738546" />
    <rect
       style="fill:#1a1a1a;fill-opacity:1;stroke:none"
       id="rect6083-1-8-1"
       width="2.96875"
       height="0.4017857"
       x="315.58554"
       y="927.18286"
       rx="0.41738546"
       transform="matrix(-0.91452656,0.40452586,0.40452586,0.91452656,0,0)" />
    <path
       style="fill:#f3c09d;fill-opacity:1;stroke:none"
       d="m 28.245539,1001.772 c -0.202821,0.1958 -0.462749,0.3282 -0.736482,0.3957 -0.273733,0.067 -0.560954,0.072 -0.839957,0.031 -0.558007,-0.081 -1.074664,-0.3349 -1.570883,-0.6027 -1.002496,-0.541 -1.966955,-1.153 -2.991072,-1.65178 -0.685207,-0.33375 -1.396616,-0.61659 -2.055076,-1.00042 -0.65846,-0.38383 -1.27233,-0.88237 -1.650281,-1.54422 -0.262488,-0.45966 -0.402484,-0.98853 -0.401785,-1.51786 l 2.678571,-0.98214 6.651786,0 1.026785,1.60714 c 0.126391,0.93655 0.245443,1.87409 0.357143,2.8125 0.05109,0.42921 0.100666,0.86318 0.05087,1.29258 -0.0498,0.4294 -0.20866,0.8599 -0.519617,1.1601"
       id="path4963"
       inkscape:path-effect="#path-effect4965"
       inkscape:original-d="m 28.245539,1001.772 c -0.828106,0.6468 -2.137558,0.1147 -3.147322,-0.1759 -1.094538,-0.315 -2.021975,-1.0534 -2.991072,-1.65178 -1.274869,-0.78721 -2.842236,-1.31989 -3.705357,-2.54464 -0.301496,-0.42782 -0.401785,-1.51786 -0.401785,-1.51786 l 2.678571,-0.98214 6.651786,0 1.026785,1.60714 c 0,0 0.386682,1.86793 0.357143,2.8125 -0.02602,0.83198 0.187266,1.94038 -0.468749,2.45268 z"
       inkscape:connector-curvature="0"
       sodipodi:nodetypes="ssssccccss" />
  </g>
</svg>
